<mxfile host="app.diagrams.net" modified="2022-10-18T01:39:40.853Z" agent="5.0 (Macintosh; Intel Mac OS X 10_15_7) AppleWebKit/537.36 (KHTML, like Gecko) Chrome/105.0.0.0 Safari/537.36" etag="4EoWQ43xSsnGvStRA_tq" version="20.2.3" type="github">
  <diagram id="S-YhWcMg4kfTPjEh6Daq" name="Page-1">
    <mxGraphModel dx="2163" dy="1258" grid="1" gridSize="10" guides="1" tooltips="1" connect="1" arrows="1" fold="1" page="1" pageScale="1" pageWidth="850" pageHeight="1100" math="0" shadow="0">
      <root>
        <mxCell id="0" />
        <mxCell id="1" parent="0" />
        <mxCell id="prSrardVWq4stz3Opwxa-1" value="ReferenceConfig" style="shape=umlLifeline;perimeter=lifelinePerimeter;whiteSpace=wrap;html=1;container=1;collapsible=0;recursiveResize=0;outlineConnect=0;" vertex="1" parent="1">
          <mxGeometry x="50" y="90" width="100" height="1410" as="geometry" />
        </mxCell>
        <mxCell id="prSrardVWq4stz3Opwxa-2" value="" style="html=1;points=[];perimeter=orthogonalPerimeter;" vertex="1" parent="prSrardVWq4stz3Opwxa-1">
          <mxGeometry x="45" y="100" width="10" height="1260" as="geometry" />
        </mxCell>
        <mxCell id="prSrardVWq4stz3Opwxa-3" value="get" style="edgeStyle=orthogonalEdgeStyle;html=1;align=left;spacingLeft=2;endArrow=block;rounded=0;entryX=1;entryY=0;" edge="1" target="prSrardVWq4stz3Opwxa-2" parent="prSrardVWq4stz3Opwxa-1">
          <mxGeometry relative="1" as="geometry">
            <mxPoint x="50" y="80" as="sourcePoint" />
            <Array as="points">
              <mxPoint x="80" y="80" />
            </Array>
          </mxGeometry>
        </mxCell>
        <mxCell id="prSrardVWq4stz3Opwxa-4" value="" style="html=1;points=[];perimeter=orthogonalPerimeter;" vertex="1" parent="prSrardVWq4stz3Opwxa-1">
          <mxGeometry x="50" y="160" width="10" height="1160" as="geometry" />
        </mxCell>
        <mxCell id="prSrardVWq4stz3Opwxa-5" value="&lt;pre style=&quot;color: rgb(8, 8, 8); font-family: &amp;quot;JetBrains Mono&amp;quot;, monospace; font-size: 9.8pt;&quot;&gt;init&lt;/pre&gt;" style="edgeStyle=orthogonalEdgeStyle;html=1;align=left;spacingLeft=2;endArrow=block;rounded=0;entryX=1;entryY=0;" edge="1" target="prSrardVWq4stz3Opwxa-4" parent="prSrardVWq4stz3Opwxa-1">
          <mxGeometry relative="1" as="geometry">
            <mxPoint x="55" y="140" as="sourcePoint" />
            <Array as="points">
              <mxPoint x="85" y="140" />
            </Array>
          </mxGeometry>
        </mxCell>
        <mxCell id="prSrardVWq4stz3Opwxa-6" value="" style="html=1;points=[];perimeter=orthogonalPerimeter;" vertex="1" parent="prSrardVWq4stz3Opwxa-1">
          <mxGeometry x="55" y="210" width="10" height="1070" as="geometry" />
        </mxCell>
        <mxCell id="prSrardVWq4stz3Opwxa-7" value="&lt;pre style=&quot;color: rgb(8, 8, 8); font-family: &amp;quot;JetBrains Mono&amp;quot;, monospace; font-size: 9.8pt;&quot;&gt;createProxy&lt;/pre&gt;" style="edgeStyle=orthogonalEdgeStyle;html=1;align=left;spacingLeft=2;endArrow=block;rounded=0;entryX=1;entryY=0;" edge="1" target="prSrardVWq4stz3Opwxa-6" parent="prSrardVWq4stz3Opwxa-1">
          <mxGeometry relative="1" as="geometry">
            <mxPoint x="60" y="190" as="sourcePoint" />
            <Array as="points">
              <mxPoint x="90" y="190" />
            </Array>
          </mxGeometry>
        </mxCell>
        <mxCell id="prSrardVWq4stz3Opwxa-8" value="Protocol$Adaptive" style="shape=umlLifeline;perimeter=lifelinePerimeter;whiteSpace=wrap;html=1;container=1;collapsible=0;recursiveResize=0;outlineConnect=0;" vertex="1" parent="1">
          <mxGeometry x="270" y="90" width="100" height="790" as="geometry" />
        </mxCell>
        <mxCell id="prSrardVWq4stz3Opwxa-9" value="" style="html=1;points=[];perimeter=orthogonalPerimeter;" vertex="1" parent="prSrardVWq4stz3Opwxa-8">
          <mxGeometry x="45" y="220" width="10" height="80" as="geometry" />
        </mxCell>
        <mxCell id="prSrardVWq4stz3Opwxa-10" value="refer" style="html=1;verticalAlign=bottom;endArrow=block;rounded=0;" edge="1" parent="1">
          <mxGeometry width="80" relative="1" as="geometry">
            <mxPoint x="115" y="320" as="sourcePoint" />
            <mxPoint x="315" y="320" as="targetPoint" />
          </mxGeometry>
        </mxCell>
        <mxCell id="prSrardVWq4stz3Opwxa-11" value="协议为registry" style="shape=note;size=20;whiteSpace=wrap;html=1;" vertex="1" parent="1">
          <mxGeometry x="160" y="330" width="100" height="30" as="geometry" />
        </mxCell>
        <mxCell id="prSrardVWq4stz3Opwxa-12" value="QosProtocolWrapper" style="shape=umlLifeline;perimeter=lifelinePerimeter;whiteSpace=wrap;html=1;container=1;collapsible=0;recursiveResize=0;outlineConnect=0;" vertex="1" parent="1">
          <mxGeometry x="460" y="90" width="130" height="790" as="geometry" />
        </mxCell>
        <mxCell id="prSrardVWq4stz3Opwxa-13" value="" style="html=1;points=[];perimeter=orthogonalPerimeter;" vertex="1" parent="prSrardVWq4stz3Opwxa-12">
          <mxGeometry x="59" y="227" width="10" height="80" as="geometry" />
        </mxCell>
        <mxCell id="prSrardVWq4stz3Opwxa-17" value="refer" style="html=1;verticalAlign=bottom;endArrow=block;rounded=0;" edge="1" parent="prSrardVWq4stz3Opwxa-12" target="prSrardVWq4stz3Opwxa-16">
          <mxGeometry width="80" relative="1" as="geometry">
            <mxPoint x="70" y="250" as="sourcePoint" />
            <mxPoint x="150" y="250" as="targetPoint" />
          </mxGeometry>
        </mxCell>
        <mxCell id="prSrardVWq4stz3Opwxa-14" value="refer" style="html=1;verticalAlign=bottom;endArrow=block;rounded=0;exitX=0.9;exitY=0.238;exitDx=0;exitDy=0;exitPerimeter=0;" edge="1" parent="1" source="prSrardVWq4stz3Opwxa-9" target="prSrardVWq4stz3Opwxa-13">
          <mxGeometry width="80" relative="1" as="geometry">
            <mxPoint x="330" y="330" as="sourcePoint" />
            <mxPoint x="410" y="330" as="targetPoint" />
          </mxGeometry>
        </mxCell>
        <mxCell id="prSrardVWq4stz3Opwxa-15" value="ProtocolListenerWrapper" style="shape=umlLifeline;perimeter=lifelinePerimeter;whiteSpace=wrap;html=1;container=1;collapsible=0;recursiveResize=0;outlineConnect=0;" vertex="1" parent="1">
          <mxGeometry x="680" y="90" width="140" height="790" as="geometry" />
        </mxCell>
        <mxCell id="prSrardVWq4stz3Opwxa-16" value="" style="html=1;points=[];perimeter=orthogonalPerimeter;" vertex="1" parent="prSrardVWq4stz3Opwxa-15">
          <mxGeometry x="65" y="240" width="10" height="80" as="geometry" />
        </mxCell>
        <mxCell id="prSrardVWq4stz3Opwxa-18" value="ProtocolFilterWrapper" style="shape=umlLifeline;perimeter=lifelinePerimeter;whiteSpace=wrap;html=1;container=1;collapsible=0;recursiveResize=0;outlineConnect=0;" vertex="1" parent="1">
          <mxGeometry x="920" y="90" width="130" height="790" as="geometry" />
        </mxCell>
        <mxCell id="prSrardVWq4stz3Opwxa-19" value="" style="html=1;points=[];perimeter=orthogonalPerimeter;" vertex="1" parent="prSrardVWq4stz3Opwxa-18">
          <mxGeometry x="60" y="250" width="10" height="80" as="geometry" />
        </mxCell>
        <mxCell id="prSrardVWq4stz3Opwxa-23" value="refer" style="html=1;verticalAlign=bottom;endArrow=block;rounded=0;" edge="1" parent="prSrardVWq4stz3Opwxa-18" target="prSrardVWq4stz3Opwxa-22">
          <mxGeometry width="80" relative="1" as="geometry">
            <mxPoint x="70" y="270" as="sourcePoint" />
            <mxPoint x="150" y="270" as="targetPoint" />
          </mxGeometry>
        </mxCell>
        <mxCell id="prSrardVWq4stz3Opwxa-20" value="refer" style="html=1;verticalAlign=bottom;endArrow=block;rounded=0;exitX=1.1;exitY=0.25;exitDx=0;exitDy=0;exitPerimeter=0;entryX=0;entryY=0.125;entryDx=0;entryDy=0;entryPerimeter=0;" edge="1" parent="1" source="prSrardVWq4stz3Opwxa-16" target="prSrardVWq4stz3Opwxa-19">
          <mxGeometry width="80" relative="1" as="geometry">
            <mxPoint x="760" y="350" as="sourcePoint" />
            <mxPoint x="840" y="350" as="targetPoint" />
          </mxGeometry>
        </mxCell>
        <mxCell id="prSrardVWq4stz3Opwxa-21" value="RegistryProtocol" style="shape=umlLifeline;perimeter=lifelinePerimeter;whiteSpace=wrap;html=1;container=1;collapsible=0;recursiveResize=0;outlineConnect=0;" vertex="1" parent="1">
          <mxGeometry x="1130" y="90" width="100" height="1270" as="geometry" />
        </mxCell>
        <mxCell id="prSrardVWq4stz3Opwxa-22" value="" style="html=1;points=[];perimeter=orthogonalPerimeter;" vertex="1" parent="prSrardVWq4stz3Opwxa-21">
          <mxGeometry x="45" y="260" width="10" height="910" as="geometry" />
        </mxCell>
        <mxCell id="prSrardVWq4stz3Opwxa-24" value="" style="html=1;points=[];perimeter=orthogonalPerimeter;" vertex="1" parent="prSrardVWq4stz3Opwxa-21">
          <mxGeometry x="50" y="305" width="10" height="835" as="geometry" />
        </mxCell>
        <mxCell id="prSrardVWq4stz3Opwxa-25" value="doRefer" style="edgeStyle=orthogonalEdgeStyle;html=1;align=left;spacingLeft=2;endArrow=block;rounded=0;entryX=1;entryY=0;" edge="1" target="prSrardVWq4stz3Opwxa-24" parent="prSrardVWq4stz3Opwxa-21">
          <mxGeometry relative="1" as="geometry">
            <mxPoint x="55" y="285" as="sourcePoint" />
            <Array as="points">
              <mxPoint x="85" y="285" />
            </Array>
          </mxGeometry>
        </mxCell>
        <mxCell id="prSrardVWq4stz3Opwxa-32" value="subscribe" style="html=1;verticalAlign=bottom;endArrow=block;rounded=0;" edge="1" parent="prSrardVWq4stz3Opwxa-21" target="prSrardVWq4stz3Opwxa-31">
          <mxGeometry width="80" relative="1" as="geometry">
            <mxPoint x="60" y="470" as="sourcePoint" />
            <mxPoint x="140" y="470" as="targetPoint" />
          </mxGeometry>
        </mxCell>
        <mxCell id="prSrardVWq4stz3Opwxa-26" value="&lt;pre style=&quot;background-color:#ffffff;color:#080808;font-family:&#39;JetBrains Mono&#39;,monospace;font-size:9.8pt;&quot;&gt;RegistryDirectory&lt;/pre&gt;" style="shape=umlLifeline;perimeter=lifelinePerimeter;whiteSpace=wrap;html=1;container=1;collapsible=0;recursiveResize=0;outlineConnect=0;" vertex="1" parent="1">
          <mxGeometry x="1330" y="90" width="140" height="1150" as="geometry" />
        </mxCell>
        <mxCell id="prSrardVWq4stz3Opwxa-27" value="" style="html=1;points=[];perimeter=orthogonalPerimeter;" vertex="1" parent="prSrardVWq4stz3Opwxa-26">
          <mxGeometry x="65" y="320" width="10" height="30" as="geometry" />
        </mxCell>
        <mxCell id="prSrardVWq4stz3Opwxa-29" value="" style="html=1;points=[];perimeter=orthogonalPerimeter;" vertex="1" parent="prSrardVWq4stz3Opwxa-26">
          <mxGeometry x="65" y="380" width="10" height="50" as="geometry" />
        </mxCell>
        <mxCell id="prSrardVWq4stz3Opwxa-31" value="" style="html=1;points=[];perimeter=orthogonalPerimeter;" vertex="1" parent="prSrardVWq4stz3Opwxa-26">
          <mxGeometry x="65" y="460" width="10" height="610" as="geometry" />
        </mxCell>
        <mxCell id="prSrardVWq4stz3Opwxa-44" value="" style="html=1;points=[];perimeter=orthogonalPerimeter;" vertex="1" parent="prSrardVWq4stz3Opwxa-26">
          <mxGeometry x="71" y="560" width="10" height="500" as="geometry" />
        </mxCell>
        <mxCell id="prSrardVWq4stz3Opwxa-46" value="" style="html=1;points=[];perimeter=orthogonalPerimeter;" vertex="1" parent="prSrardVWq4stz3Opwxa-26">
          <mxGeometry x="76" y="610" width="10" height="430" as="geometry" />
        </mxCell>
        <mxCell id="prSrardVWq4stz3Opwxa-47" value="refreshOverrideAndInvoker" style="edgeStyle=orthogonalEdgeStyle;html=1;align=left;spacingLeft=2;endArrow=block;rounded=0;entryX=1;entryY=0;" edge="1" target="prSrardVWq4stz3Opwxa-46" parent="prSrardVWq4stz3Opwxa-26">
          <mxGeometry relative="1" as="geometry">
            <mxPoint x="81" y="590" as="sourcePoint" />
            <Array as="points">
              <mxPoint x="111" y="590" />
            </Array>
          </mxGeometry>
        </mxCell>
        <mxCell id="prSrardVWq4stz3Opwxa-48" value="" style="html=1;points=[];perimeter=orthogonalPerimeter;" vertex="1" parent="prSrardVWq4stz3Opwxa-26">
          <mxGeometry x="81" y="645" width="10" height="40" as="geometry" />
        </mxCell>
        <mxCell id="prSrardVWq4stz3Opwxa-49" value="overrideDirectoryUrl" style="edgeStyle=orthogonalEdgeStyle;html=1;align=left;spacingLeft=2;endArrow=block;rounded=0;entryX=1;entryY=0;" edge="1" target="prSrardVWq4stz3Opwxa-48" parent="prSrardVWq4stz3Opwxa-26">
          <mxGeometry relative="1" as="geometry">
            <mxPoint x="86" y="625" as="sourcePoint" />
            <Array as="points">
              <mxPoint x="116" y="625" />
            </Array>
          </mxGeometry>
        </mxCell>
        <mxCell id="prSrardVWq4stz3Opwxa-50" value="" style="html=1;points=[];perimeter=orthogonalPerimeter;" vertex="1" parent="prSrardVWq4stz3Opwxa-26">
          <mxGeometry x="81" y="740" width="10" height="270" as="geometry" />
        </mxCell>
        <mxCell id="prSrardVWq4stz3Opwxa-51" value="refreshInvoker" style="edgeStyle=orthogonalEdgeStyle;html=1;align=left;spacingLeft=2;endArrow=block;rounded=0;entryX=1;entryY=0;" edge="1" target="prSrardVWq4stz3Opwxa-50" parent="prSrardVWq4stz3Opwxa-26">
          <mxGeometry relative="1" as="geometry">
            <mxPoint x="86" y="720" as="sourcePoint" />
            <Array as="points">
              <mxPoint x="116" y="720" />
            </Array>
          </mxGeometry>
        </mxCell>
        <mxCell id="prSrardVWq4stz3Opwxa-52" value="" style="html=1;points=[];perimeter=orthogonalPerimeter;" vertex="1" parent="prSrardVWq4stz3Opwxa-26">
          <mxGeometry x="86" y="800" width="10" height="130" as="geometry" />
        </mxCell>
        <mxCell id="prSrardVWq4stz3Opwxa-53" value="toInvokers" style="edgeStyle=orthogonalEdgeStyle;html=1;align=left;spacingLeft=2;endArrow=block;rounded=0;entryX=1;entryY=0;" edge="1" target="prSrardVWq4stz3Opwxa-52" parent="prSrardVWq4stz3Opwxa-26">
          <mxGeometry relative="1" as="geometry">
            <mxPoint x="91" y="780" as="sourcePoint" />
            <Array as="points">
              <mxPoint x="121" y="780" />
            </Array>
          </mxGeometry>
        </mxCell>
        <mxCell id="prSrardVWq4stz3Opwxa-28" value="new" style="html=1;verticalAlign=bottom;endArrow=block;rounded=0;" edge="1" parent="1">
          <mxGeometry width="80" relative="1" as="geometry">
            <mxPoint x="1190" y="415" as="sourcePoint" />
            <mxPoint x="1395" y="415" as="targetPoint" />
          </mxGeometry>
        </mxCell>
        <mxCell id="prSrardVWq4stz3Opwxa-30" value="buildRouterChain" style="html=1;verticalAlign=bottom;endArrow=block;rounded=0;" edge="1" parent="1">
          <mxGeometry width="80" relative="1" as="geometry">
            <mxPoint x="1190" y="476.5" as="sourcePoint" />
            <mxPoint x="1395" y="476.5" as="targetPoint" />
          </mxGeometry>
        </mxCell>
        <mxCell id="prSrardVWq4stz3Opwxa-33" value="ZookeeperRegistry" style="shape=umlLifeline;perimeter=lifelinePerimeter;whiteSpace=wrap;html=1;container=1;collapsible=0;recursiveResize=0;outlineConnect=0;" vertex="1" parent="1">
          <mxGeometry x="1540" y="90" width="120" height="790" as="geometry" />
        </mxCell>
        <mxCell id="prSrardVWq4stz3Opwxa-34" value="" style="html=1;points=[];perimeter=orthogonalPerimeter;" vertex="1" parent="prSrardVWq4stz3Opwxa-33">
          <mxGeometry x="55" y="470" width="10" height="270" as="geometry" />
        </mxCell>
        <mxCell id="prSrardVWq4stz3Opwxa-36" value="" style="html=1;points=[];perimeter=orthogonalPerimeter;" vertex="1" parent="prSrardVWq4stz3Opwxa-33">
          <mxGeometry x="60" y="500" width="10" height="210" as="geometry" />
        </mxCell>
        <mxCell id="prSrardVWq4stz3Opwxa-37" value="doSubscribe" style="edgeStyle=orthogonalEdgeStyle;html=1;align=left;spacingLeft=2;endArrow=block;rounded=0;entryX=1;entryY=0;" edge="1" target="prSrardVWq4stz3Opwxa-36" parent="prSrardVWq4stz3Opwxa-33">
          <mxGeometry relative="1" as="geometry">
            <mxPoint x="65" y="480" as="sourcePoint" />
            <Array as="points">
              <mxPoint x="95" y="480" />
            </Array>
          </mxGeometry>
        </mxCell>
        <mxCell id="prSrardVWq4stz3Opwxa-40" value="addChildListener" style="html=1;verticalAlign=bottom;endArrow=block;rounded=0;" edge="1" parent="prSrardVWq4stz3Opwxa-33" target="prSrardVWq4stz3Opwxa-39">
          <mxGeometry width="80" relative="1" as="geometry">
            <mxPoint x="70" y="510" as="sourcePoint" />
            <mxPoint x="150" y="510" as="targetPoint" />
          </mxGeometry>
        </mxCell>
        <mxCell id="prSrardVWq4stz3Opwxa-41" value="" style="html=1;points=[];perimeter=orthogonalPerimeter;" vertex="1" parent="prSrardVWq4stz3Opwxa-33">
          <mxGeometry x="65" y="550" width="10" height="130" as="geometry" />
        </mxCell>
        <mxCell id="prSrardVWq4stz3Opwxa-42" value="notify" style="edgeStyle=orthogonalEdgeStyle;html=1;align=left;spacingLeft=2;endArrow=block;rounded=0;entryX=1;entryY=0;" edge="1" target="prSrardVWq4stz3Opwxa-41" parent="prSrardVWq4stz3Opwxa-33">
          <mxGeometry relative="1" as="geometry">
            <mxPoint x="70" y="530" as="sourcePoint" />
            <Array as="points">
              <mxPoint x="100" y="530" />
            </Array>
          </mxGeometry>
        </mxCell>
        <mxCell id="prSrardVWq4stz3Opwxa-35" value="subscribe" style="html=1;verticalAlign=bottom;endArrow=block;rounded=0;" edge="1" parent="1">
          <mxGeometry width="80" relative="1" as="geometry">
            <mxPoint x="1405" y="565" as="sourcePoint" />
            <mxPoint x="1599.5" y="565" as="targetPoint" />
          </mxGeometry>
        </mxCell>
        <mxCell id="prSrardVWq4stz3Opwxa-38" value="&lt;pre style=&quot;background-color:#ffffff;color:#080808;font-family:&#39;JetBrains Mono&#39;,monospace;font-size:9.8pt;&quot;&gt;&lt;span style=&quot;color:#000000;&quot;&gt;CuratorZookeeperClient&lt;/span&gt;&lt;/pre&gt;" style="shape=umlLifeline;perimeter=lifelinePerimeter;whiteSpace=wrap;html=1;container=1;collapsible=0;recursiveResize=0;outlineConnect=0;" vertex="1" parent="1">
          <mxGeometry x="1710" y="90" width="180" height="790" as="geometry" />
        </mxCell>
        <mxCell id="prSrardVWq4stz3Opwxa-39" value="" style="html=1;points=[];perimeter=orthogonalPerimeter;" vertex="1" parent="prSrardVWq4stz3Opwxa-38">
          <mxGeometry x="85" y="505" width="10" height="35" as="geometry" />
        </mxCell>
        <mxCell id="prSrardVWq4stz3Opwxa-45" value="notify" style="html=1;verticalAlign=bottom;endArrow=block;rounded=0;" edge="1" parent="1">
          <mxGeometry width="80" relative="1" as="geometry">
            <mxPoint x="1605" y="651" as="sourcePoint" />
            <mxPoint x="1411" y="651" as="targetPoint" />
          </mxGeometry>
        </mxCell>
        <mxCell id="prSrardVWq4stz3Opwxa-54" value="Protocol$Adaptive" style="shape=umlLifeline;perimeter=lifelinePerimeter;whiteSpace=wrap;html=1;container=1;collapsible=0;recursiveResize=0;outlineConnect=0;" vertex="1" parent="1">
          <mxGeometry x="1940" y="90" width="100" height="1000" as="geometry" />
        </mxCell>
        <mxCell id="prSrardVWq4stz3Opwxa-55" value="" style="html=1;points=[];perimeter=orthogonalPerimeter;" vertex="1" parent="prSrardVWq4stz3Opwxa-54">
          <mxGeometry x="45" y="810" width="10" height="80" as="geometry" />
        </mxCell>
        <mxCell id="prSrardVWq4stz3Opwxa-56" value="refer" style="html=1;verticalAlign=bottom;endArrow=block;rounded=0;" edge="1" parent="1">
          <mxGeometry width="80" relative="1" as="geometry">
            <mxPoint x="1426" y="907" as="sourcePoint" />
            <mxPoint x="1985" y="907" as="targetPoint" />
          </mxGeometry>
        </mxCell>
        <mxCell id="prSrardVWq4stz3Opwxa-57" value="QosProtocolWrapper" style="shape=umlLifeline;perimeter=lifelinePerimeter;whiteSpace=wrap;html=1;container=1;collapsible=0;recursiveResize=0;outlineConnect=0;" vertex="1" parent="1">
          <mxGeometry x="2090" y="90" width="120" height="1000" as="geometry" />
        </mxCell>
        <mxCell id="prSrardVWq4stz3Opwxa-58" value="" style="html=1;points=[];perimeter=orthogonalPerimeter;" vertex="1" parent="prSrardVWq4stz3Opwxa-57">
          <mxGeometry x="55" y="820" width="10" height="80" as="geometry" />
        </mxCell>
        <mxCell id="prSrardVWq4stz3Opwxa-59" value="refer" style="html=1;verticalAlign=bottom;endArrow=block;rounded=0;" edge="1" parent="1">
          <mxGeometry width="80" relative="1" as="geometry">
            <mxPoint x="1995" y="920" as="sourcePoint" />
            <mxPoint x="2145" y="920" as="targetPoint" />
          </mxGeometry>
        </mxCell>
        <mxCell id="prSrardVWq4stz3Opwxa-60" value="ProtocolListenerWrapper" style="shape=umlLifeline;perimeter=lifelinePerimeter;whiteSpace=wrap;html=1;container=1;collapsible=0;recursiveResize=0;outlineConnect=0;" vertex="1" parent="1">
          <mxGeometry x="2260" y="90" width="140" height="1000" as="geometry" />
        </mxCell>
        <mxCell id="prSrardVWq4stz3Opwxa-61" value="" style="html=1;points=[];perimeter=orthogonalPerimeter;" vertex="1" parent="prSrardVWq4stz3Opwxa-60">
          <mxGeometry x="65" y="828" width="10" height="80" as="geometry" />
        </mxCell>
        <mxCell id="prSrardVWq4stz3Opwxa-62" value="refer" style="html=1;verticalAlign=bottom;endArrow=block;rounded=0;" edge="1" parent="1">
          <mxGeometry width="80" relative="1" as="geometry">
            <mxPoint x="2155" y="925" as="sourcePoint" />
            <mxPoint x="2325" y="925" as="targetPoint" />
          </mxGeometry>
        </mxCell>
        <mxCell id="prSrardVWq4stz3Opwxa-63" value="ProtocolFilterWrapper" style="shape=umlLifeline;perimeter=lifelinePerimeter;whiteSpace=wrap;html=1;container=1;collapsible=0;recursiveResize=0;outlineConnect=0;" vertex="1" parent="1">
          <mxGeometry x="2450" y="90" width="140" height="1000" as="geometry" />
        </mxCell>
        <mxCell id="prSrardVWq4stz3Opwxa-64" value="" style="html=1;points=[];perimeter=orthogonalPerimeter;" vertex="1" parent="prSrardVWq4stz3Opwxa-63">
          <mxGeometry x="65" y="835" width="10" height="95" as="geometry" />
        </mxCell>
        <mxCell id="prSrardVWq4stz3Opwxa-89" value="" style="html=1;points=[];perimeter=orthogonalPerimeter;" vertex="1" parent="prSrardVWq4stz3Opwxa-63">
          <mxGeometry x="70" y="880" width="10" height="40" as="geometry" />
        </mxCell>
        <mxCell id="prSrardVWq4stz3Opwxa-90" value="buildInvokerChain" style="edgeStyle=orthogonalEdgeStyle;html=1;align=left;spacingLeft=2;endArrow=block;rounded=0;entryX=1;entryY=0;" edge="1" target="prSrardVWq4stz3Opwxa-89" parent="prSrardVWq4stz3Opwxa-63">
          <mxGeometry relative="1" as="geometry">
            <mxPoint x="75" y="860" as="sourcePoint" />
            <Array as="points">
              <mxPoint x="105" y="860" />
            </Array>
          </mxGeometry>
        </mxCell>
        <mxCell id="prSrardVWq4stz3Opwxa-65" value="refer" style="html=1;verticalAlign=bottom;endArrow=block;rounded=0;" edge="1" parent="1">
          <mxGeometry width="80" relative="1" as="geometry">
            <mxPoint x="2335" y="933" as="sourcePoint" />
            <mxPoint x="2515" y="933" as="targetPoint" />
          </mxGeometry>
        </mxCell>
        <mxCell id="prSrardVWq4stz3Opwxa-66" value="DubboProtocol" style="shape=umlLifeline;perimeter=lifelinePerimeter;whiteSpace=wrap;html=1;container=1;collapsible=0;recursiveResize=0;outlineConnect=0;" vertex="1" parent="1">
          <mxGeometry x="2640" y="90" width="100" height="1000" as="geometry" />
        </mxCell>
        <mxCell id="prSrardVWq4stz3Opwxa-67" value="" style="html=1;points=[];perimeter=orthogonalPerimeter;" vertex="1" parent="prSrardVWq4stz3Opwxa-66">
          <mxGeometry x="45" y="840" width="10" height="120" as="geometry" />
        </mxCell>
        <mxCell id="prSrardVWq4stz3Opwxa-72" value="" style="html=1;points=[];perimeter=orthogonalPerimeter;" vertex="1" parent="prSrardVWq4stz3Opwxa-66">
          <mxGeometry x="50" y="890" width="10" height="50" as="geometry" />
        </mxCell>
        <mxCell id="prSrardVWq4stz3Opwxa-68" value="refer" style="html=1;verticalAlign=bottom;endArrow=block;rounded=0;" edge="1" parent="1">
          <mxGeometry width="80" relative="1" as="geometry">
            <mxPoint x="2525" y="937" as="sourcePoint" />
            <mxPoint x="2685" y="937" as="targetPoint" />
          </mxGeometry>
        </mxCell>
        <mxCell id="prSrardVWq4stz3Opwxa-69" value="DubboInvoker" style="shape=umlLifeline;perimeter=lifelinePerimeter;whiteSpace=wrap;html=1;container=1;collapsible=0;recursiveResize=0;outlineConnect=0;" vertex="1" parent="1">
          <mxGeometry x="2780" y="90" width="100" height="1000" as="geometry" />
        </mxCell>
        <mxCell id="prSrardVWq4stz3Opwxa-70" value="" style="html=1;points=[];perimeter=orthogonalPerimeter;" vertex="1" parent="prSrardVWq4stz3Opwxa-69">
          <mxGeometry x="45" y="850" width="10" height="80" as="geometry" />
        </mxCell>
        <mxCell id="prSrardVWq4stz3Opwxa-71" value="new" style="html=1;verticalAlign=bottom;endArrow=block;rounded=0;" edge="1" parent="1">
          <mxGeometry width="80" relative="1" as="geometry">
            <mxPoint x="2695" y="950" as="sourcePoint" />
            <mxPoint x="2825" y="950" as="targetPoint" />
          </mxGeometry>
        </mxCell>
        <mxCell id="prSrardVWq4stz3Opwxa-73" value="getClients" style="html=1;verticalAlign=bottom;endArrow=block;rounded=0;" edge="1" parent="1">
          <mxGeometry width="80" relative="1" as="geometry">
            <mxPoint x="2825" y="988" as="sourcePoint" />
            <mxPoint x="2700" y="988" as="targetPoint" />
          </mxGeometry>
        </mxCell>
        <mxCell id="prSrardVWq4stz3Opwxa-75" value="此处创建消费端的NettyCLient" style="shape=note;size=20;whiteSpace=wrap;html=1;" vertex="1" parent="1">
          <mxGeometry x="2710" y="1010" width="110" height="30" as="geometry" />
        </mxCell>
        <mxCell id="prSrardVWq4stz3Opwxa-76" value="" style="endArrow=none;dashed=1;html=1;rounded=0;exitX=0.856;exitY=0.553;exitDx=0;exitDy=0;exitPerimeter=0;entryX=0;entryY=0.5;entryDx=0;entryDy=0;entryPerimeter=0;" edge="1" parent="1" source="prSrardVWq4stz3Opwxa-72" target="prSrardVWq4stz3Opwxa-75">
          <mxGeometry width="50" height="50" relative="1" as="geometry">
            <mxPoint x="2760" y="1150" as="sourcePoint" />
            <mxPoint x="2810" y="1100" as="targetPoint" />
          </mxGeometry>
        </mxCell>
        <mxCell id="prSrardVWq4stz3Opwxa-77" value="RouterChain" style="shape=umlLifeline;perimeter=lifelinePerimeter;whiteSpace=wrap;html=1;container=1;collapsible=0;recursiveResize=0;outlineConnect=0;" vertex="1" parent="1">
          <mxGeometry x="2920" y="90" width="100" height="1120" as="geometry" />
        </mxCell>
        <mxCell id="prSrardVWq4stz3Opwxa-78" value="" style="html=1;points=[];perimeter=orthogonalPerimeter;" vertex="1" parent="prSrardVWq4stz3Opwxa-77">
          <mxGeometry x="45" y="980" width="10" height="80" as="geometry" />
        </mxCell>
        <mxCell id="prSrardVWq4stz3Opwxa-79" value="setInvokers" style="html=1;verticalAlign=bottom;endArrow=block;rounded=0;" edge="1" parent="1">
          <mxGeometry width="80" relative="1" as="geometry">
            <mxPoint x="1421.0000000000005" y="1078" as="sourcePoint" />
            <mxPoint x="2965" y="1078" as="targetPoint" />
          </mxGeometry>
        </mxCell>
        <mxCell id="prSrardVWq4stz3Opwxa-80" value="Cluster$Adaptive" style="shape=umlLifeline;perimeter=lifelinePerimeter;whiteSpace=wrap;html=1;container=1;collapsible=0;recursiveResize=0;outlineConnect=0;" vertex="1" parent="1">
          <mxGeometry x="3070" y="90" width="100" height="1190" as="geometry" />
        </mxCell>
        <mxCell id="prSrardVWq4stz3Opwxa-84" value="" style="html=1;points=[];perimeter=orthogonalPerimeter;" vertex="1" parent="prSrardVWq4stz3Opwxa-80">
          <mxGeometry x="45" y="1100" width="10" height="80" as="geometry" />
        </mxCell>
        <mxCell id="prSrardVWq4stz3Opwxa-83" value="join" style="html=1;verticalAlign=bottom;endArrow=block;rounded=0;" edge="1" parent="1">
          <mxGeometry width="80" relative="1" as="geometry">
            <mxPoint x="1190" y="1196.0000000000002" as="sourcePoint" />
            <mxPoint x="3115" y="1196.0000000000002" as="targetPoint" />
          </mxGeometry>
        </mxCell>
        <mxCell id="prSrardVWq4stz3Opwxa-85" value="使用集群容错策略对invoker进行装饰增强" style="shape=note;size=20;whiteSpace=wrap;html=1;" vertex="1" parent="1">
          <mxGeometry x="3140" y="1120" width="100" height="100" as="geometry" />
        </mxCell>
        <mxCell id="prSrardVWq4stz3Opwxa-86" value="ProxyFactory$Adaptive" style="shape=umlLifeline;perimeter=lifelinePerimeter;whiteSpace=wrap;html=1;container=1;collapsible=0;recursiveResize=0;outlineConnect=0;" vertex="1" parent="1">
          <mxGeometry x="3250" y="90" width="130" height="1330" as="geometry" />
        </mxCell>
        <mxCell id="prSrardVWq4stz3Opwxa-88" value="" style="html=1;points=[];perimeter=orthogonalPerimeter;" vertex="1" parent="prSrardVWq4stz3Opwxa-86">
          <mxGeometry x="60" y="1220" width="10" height="80" as="geometry" />
        </mxCell>
        <mxCell id="prSrardVWq4stz3Opwxa-87" value="getProxy" style="html=1;verticalAlign=bottom;endArrow=block;rounded=0;" edge="1" parent="1">
          <mxGeometry width="80" relative="1" as="geometry">
            <mxPoint x="115" y="1318" as="sourcePoint" />
            <mxPoint x="3310" y="1318" as="targetPoint" />
          </mxGeometry>
        </mxCell>
        <mxCell id="prSrardVWq4stz3Opwxa-91" value="监听ZK中服务节点&lt;br&gt;服务变动及时触发notify更新内存缓存数据" style="shape=note;size=20;whiteSpace=wrap;html=1;" vertex="1" parent="1">
          <mxGeometry x="1821" y="560" width="130" height="100" as="geometry" />
        </mxCell>
        <mxCell id="prSrardVWq4stz3Opwxa-92" value="较为重要的一步&lt;br&gt;通过注册中心的providers下的url生成对应的Invoker" style="shape=note;size=20;whiteSpace=wrap;html=1;" vertex="1" parent="1">
          <mxGeometry x="1442" y="924" width="100" height="100" as="geometry" />
        </mxCell>
      </root>
    </mxGraphModel>
  </diagram>
</mxfile>
